<svg xmlns="http://www.w3.org/2000/svg" xmlns:xlink="http://www.w3.org/1999/xlink" viewBox="0 0 2562 1600"><defs><filter id="luminosity-noclip" x="1" y="-8992" width="100%" height="100%" filterUnits="userSpaceOnUse" color-interpolation-filters="sRGB"><feFlood flood-color="#fff" result="bg"/><feBlend in="SourceGraphic" in2="bg"/></filter><mask id="mask" x="1" y="-8992" width="2560" height="32766" maskUnits="userSpaceOnUse"><g filter="url(#luminosity-noclip)"/></mask><linearGradient id="Fade_to_Black_8" x1="1281" y1="1781" x2="1281" y2="496.89" gradientUnits="userSpaceOnUse"><stop offset="0" stop-color="#fff"/><stop offset="0.06" stop-color="#dadada"/><stop offset="0.16" stop-color="#a7a7a7"/><stop offset="0.26" stop-color="#7b7b7b"/><stop offset="0.37" stop-color="#555"/><stop offset="0.48" stop-color="#363636"/><stop offset="0.59" stop-color="#1e1e1e"/><stop offset="0.71" stop-color="#0d0d0d"/><stop offset="0.84" stop-color="#030303"/><stop offset="1"/></linearGradient><filter id="luminosity-noclip-2" x="1103.9" y="-8992" width="137.78" height="32766" filterUnits="userSpaceOnUse" color-interpolation-filters="sRGB"><feFlood flood-color="#fff" result="bg"/><feBlend in="SourceGraphic" in2="bg"/></filter><mask id="mask-2" x="1103.9" y="-8992" width="137.78" height="32766" maskUnits="userSpaceOnUse"><g filter="url(#luminosity-noclip-2)"/></mask><linearGradient id="Fade_to_Black_3" x1="1217.92" y1="1621.78" x2="1179.15" y2="1384.17" xlink:href="#Fade_to_Black_8"/><filter id="luminosity-noclip-3" x="1535.34" y="-8992" width="211.11" height="32766" filterUnits="userSpaceOnUse" color-interpolation-filters="sRGB"><feFlood flood-color="#fff" result="bg"/><feBlend in="SourceGraphic" in2="bg"/></filter><mask id="mask-3" x="1535.34" y="-8992" width="211.11" height="32766" maskUnits="userSpaceOnUse"><g filter="url(#luminosity-noclip-3)"/></mask><linearGradient id="Fade_to_Black_2" x1="1888.46" y1="619.99" x2="1495.48" y2="742.98" xlink:href="#Fade_to_Black_8"/><filter id="luminosity-noclip-4" x="1495.41" y="-8992" width="1050.96" height="32766" filterUnits="userSpaceOnUse" color-interpolation-filters="sRGB"><feFlood flood-color="#fff" result="bg"/><feBlend in="SourceGraphic" in2="bg"/></filter><mask id="mask-4" x="1495.41" y="-8992" width="1050.96" height="32766" maskUnits="userSpaceOnUse"><g filter="url(#luminosity-noclip-4)"/></mask><linearGradient id="Fade_to_Black_7" x1="2020.89" y1="1637" x2="2020.89" y2="-303.21" xlink:href="#Fade_to_Black_8"/><filter id="luminosity-noclip-5" x="635.81" y="-8992" width="863.73" height="32766" filterUnits="userSpaceOnUse" color-interpolation-filters="sRGB"><feFlood flood-color="#fff" result="bg"/><feBlend in="SourceGraphic" in2="bg"/></filter><mask id="mask-5" x="635.81" y="-8992" width="863.73" height="32766" maskUnits="userSpaceOnUse"><g filter="url(#luminosity-noclip-5)"/></mask><linearGradient id="Fade_to_Black_6" x1="1067.67" y1="2013" x2="1067.67" y2="72.8" xlink:href="#Fade_to_Black_8"/><filter id="luminosity-noclip-6" x="1188.54" y="-8992" width="919.49" height="32766" filterUnits="userSpaceOnUse" color-interpolation-filters="sRGB"><feFlood flood-color="#fff" result="bg"/><feBlend in="SourceGraphic" in2="bg"/></filter><mask id="mask-6" x="1188.54" y="-8992" width="919.49" height="32766" maskUnits="userSpaceOnUse"><g filter="url(#luminosity-noclip-6)"/></mask><linearGradient id="Fade_to_Black_5" x1="1787.04" y1="1194.72" x2="1340" y2="906.69" xlink:href="#Fade_to_Black_8"/><filter id="luminosity-noclip-7" x="1346.34" y="-8992" width="919.49" height="32766" filterUnits="userSpaceOnUse" color-interpolation-filters="sRGB"><feFlood flood-color="#fff" result="bg"/><feBlend in="SourceGraphic" in2="bg"/></filter><mask id="mask-7" x="1346.34" y="-8992" width="919.49" height="32766" maskUnits="userSpaceOnUse"><g filter="url(#luminosity-noclip-7)"/></mask><linearGradient id="Fade_to_Black_4" x1="1806.08" y1="1663.73" x2="1806.08" y2="667.26" xlink:href="#Fade_to_Black_8"/><filter id="luminosity-noclip-8" x="1" y="0" width="2560" height="1600" filterUnits="userSpaceOnUse" color-interpolation-filters="sRGB"><feFlood flood-color="#fff" result="bg"/><feBlend in="SourceGraphic" in2="bg"/></filter><mask id="mask-8" x="2" y="0" width="2560" height="1600" maskUnits="userSpaceOnUse"><g filter="url(#luminosity-noclip-8)"><g transform="translate(1 0)"><g mask="url(#mask)"><rect id="_Path_" data-name="&lt;Path&gt;" x="1" width="2560" height="1600" fill="url(#Fade_to_Black_8)" style="mix-blend-mode:multiply"/></g></g></g></mask><linearGradient id="Fade_to_Black_1" x1="1282" y1="1781" x2="1282" y2="496.89" gradientUnits="userSpaceOnUse"><stop offset="0" stop-color="#1F1F1F"/><stop offset="0.09" stop-color="#1F1F1F"/><stop offset="1" stop-color="#1F1F1F"/></linearGradient><filter id="luminosity-noclip-9" x="1495.41" y="219.96" width="1050.96" height="1380.04" filterUnits="userSpaceOnUse" color-interpolation-filters="sRGB"><feFlood flood-color="#fff" result="bg"/><feBlend in="SourceGraphic" in2="bg"/></filter><mask id="mask-9" x="1496.41" y="219.96" width="1050.96" height="1380.04" maskUnits="userSpaceOnUse"><g filter="url(#luminosity-noclip-9)"><g transform="translate(1 0)"><g mask="url(#mask-4)"><polygon points="1685.8 319.6 1742.8 220 1698 325 1748.2 347 1752.1 348.7 1753.7 353.4 1795.1 472.7 1828.8 443.7 1810.9 387 1838.8 435.1 1876.1 403 1870.3 327.7 1870.2 325.9 1871.6 325.1 1943.8 284.1 1875.9 328.7 1886.7 404.6 1887.1 407.1 1885.1 409.1 1801.5 491.1 1827 564.7 2113.2 686.5 2116.4 492.2 2116.7 474 2133.8 472.9 2350.8 459 2348.5 407.6 2256.2 393.6 2252.4 393 2253.2 389.4 2262.8 346.3 2229.7 331.9 2263.8 341.9 2274.6 293.1 2260.7 386.8 2347.9 393.8 2342.6 278.7 2373 457.5 2462.4 456 2546.4 354 2472.5 465.8 2470.9 468.9 2467.1 469.4 2195.5 515.6 2209.2 1600 2099.1 1600 2112 757 1803.2 596.8 1794.9 592.5 1792.9 584.9 1734.6 363.6 1495.4 236.2 1685.8 319.6" fill="url(#Fade_to_Black_7)" style="mix-blend-mode:multiply"/></g></g></g></mask><linearGradient id="Fade_to_Black_1-2" x1="2021.89" y1="1637" x2="2021.89" y2="-303.21" xlink:href="#Fade_to_Black_1"/><filter id="luminosity-noclip-10" x="635.81" y="465.82" width="863.73" height="1134.18" filterUnits="userSpaceOnUse" color-interpolation-filters="sRGB"><feFlood flood-color="#fff" result="bg"/><feBlend in="SourceGraphic" in2="bg"/></filter><mask id="mask-10" x="636.81" y="465.82" width="863.73" height="1134.18" maskUnits="userSpaceOnUse"><g filter="url(#luminosity-noclip-10)"><g transform="translate(1 0)"><g mask="url(#mask-5)"><polygon points="792.3 547.7 839.1 465.8 802.3 552.1 843.6 570.2 846.7 571.6 848.1 575.5 882.1 673.5 909.8 649.7 895.1 603.1 918 642.6 948.7 616.2 943.9 554.4 943.8 552.9 945 552.2 1004.3 518.6 948.5 555.2 957.4 617.6 957.7 619.6 956 621.2 887.3 688.6 908.3 749.2 1143.5 849.3 1146.2 689.5 1146.4 674.6 1160.4 673.7 1338.8 662.2 1336.9 620 1261.1 608.5 1257.9 608 1258.6 605.1 1266.5 569.7 1239.3 557.8 1267.3 566 1276.2 525.9 1264.8 603 1336.4 608.6 1332 514.1 1357.1 661.1 1430.5 659.8 1499.5 576 1438.8 667.9 1437.6 670.4 1434.4 670.8 1211.2 708.8 1222.4 1600 1132 1600 1142.6 907.2 888.8 775.5 882 771.9 880.3 765.7 832.4 583.9 635.8 479.2 792.3 547.7" fill="url(#Fade_to_Black_6)" style="mix-blend-mode:multiply"/></g></g></g></mask><linearGradient id="Fade_to_Black_1-3" x1="1068.67" y1="2013" x2="1068.67" y2="72.8" xlink:href="#Fade_to_Black_1"/><filter id="luminosity-noclip-11" x="1188.54" y="459" width="919.49" height="1141" filterUnits="userSpaceOnUse" color-interpolation-filters="sRGB"><feFlood flood-color="#fff" result="bg"/><feBlend in="SourceGraphic" in2="bg"/></filter><mask id="mask-11" x="1189.54" y="459" width="919.49" height="1141" maskUnits="userSpaceOnUse"><g filter="url(#luminosity-noclip-11)"><g transform="translate(1 0)"><g mask="url(#mask-6)"><path d="M2108,1600,1773.6,959h92.9V728c0-148.6-120.4-269-269-269h-8c-113.2,0-205,91.8-205,205V906.1c-2.4,132.8-78.6,215.4-195.9,215.4v140h168.9a27.1,27.1,0,0,1,27.1,27.1V1600Z" fill="url(#Fade_to_Black_5)" style="mix-blend-mode:multiply"/></g></g></g></mask><linearGradient id="Fade_to_Black_1-4" x1="1787.04" y1="1194.72" x2="1340" y2="906.69" xlink:href="#Fade_to_Black_1"/><filter id="luminosity-noclip-12" x="1346.34" y="183" width="919.49" height="1417" filterUnits="userSpaceOnUse" color-interpolation-filters="sRGB"><feFlood flood-color="#fff" result="bg"/><feBlend in="SourceGraphic" in2="bg"/></filter><mask id="mask-12" x="1347.34" y="183" width="919.49" height="1417" maskUnits="userSpaceOnUse"><g filter="url(#luminosity-noclip-12)"><g transform="translate(1 0)"><g mask="url(#mask-7)"><path d="M2265.8,1600,1910.5,976.8a27.5,27.5,0,0,1,4-32.6l68.9-72.3a25.8,25.8,0,0,0,4.8-7L2046,739.1a25.8,25.8,0,0,0,2.4-10.8v-130a25.8,25.8,0,0,1,3.9-13.6l75-120.8a25.8,25.8,0,0,0,3.7-10.8l18.3-168a25.8,25.8,0,0,0-5.1-18.4L2080.3,183v83.1a25.8,25.8,0,0,1-5.4,15.8l-78.8,101.1a25.8,25.8,0,0,1-20.3,9.9H1850a25.8,25.8,0,0,0-16.9,6.3l-61.5,53.4a25.8,25.8,0,0,1-16.9,6.3H1559.3c133.6,50.4,192.3,184,186.8,388.9A114,114,0,0,1,1632.2,959h-89.8c0,136.7-76.7,222-196,222v140h168.9a27.1,27.1,0,0,1,27.1,27.1V1600Z" fill="url(#Fade_to_Black_4)" style="mix-blend-mode:multiply"/></g></g></g></mask><linearGradient id="Fade_to_Black_1-5" x1="1806.08" y1="1663.73" x2="1806.08" y2="667.26" xlink:href="#Fade_to_Black_1"/><filter id="luminosity-noclip-13" x="1103.9" y="1090.4" width="137.78" height="509.6" filterUnits="userSpaceOnUse" color-interpolation-filters="sRGB"><feFlood flood-color="#fff" result="bg"/><feBlend in="SourceGraphic" in2="bg"/></filter><mask id="mask-13" x="1104.9" y="1090.4" width="137.78" height="509.6" maskUnits="userSpaceOnUse"><g filter="url(#luminosity-noclip-13)"><g transform="translate(1 0)"><g mask="url(#mask-2)"><polygon points="1103.9 1090.4 1185.3 1600 1241.7 1600 1160.2 1090.4 1103.9 1090.4" fill="url(#Fade_to_Black_3)" style="mix-blend-mode:multiply"/></g></g></g></mask><linearGradient id="Fade_to_Black_1-6" x1="1218.92" y1="1621.78" x2="1180.15" y2="1384.17" xlink:href="#Fade_to_Black_1"/><filter id="luminosity-noclip-14" x="1535.34" y="460.63" width="211.11" height="497.67" filterUnits="userSpaceOnUse" color-interpolation-filters="sRGB"><feFlood flood-color="#fff" result="bg"/><feBlend in="SourceGraphic" in2="bg"/></filter><mask id="mask-14" x="1536.34" y="460.63" width="211.11" height="497.67" maskUnits="userSpaceOnUse"><g filter="url(#luminosity-noclip-14)"><g transform="translate(1 0)"><g mask="url(#mask-3)"><path d="M1698.9,861a120.1,120.1,0,0,1-54.1,97.3,114.1,114.1,0,0,0,101.3-110.4c5.4-202.8-52-335.7-182.6-387.3a204,204,0,0,0-28.2,5.6C1652.6,528.1,1704.2,663,1698.9,861Z" fill="url(#Fade_to_Black_2)" style="mix-blend-mode:multiply"/></g></g></g></mask><linearGradient id="Fade_to_Black_1-7" x1="1888.46" y1="619.99" x2="1495.48" y2="742.98" xlink:href="#Fade_to_Black_1"/></defs><title>CONDOLENCES_OCT_17_EEZY_13</title><g style="isolation:isolate"><g id="Layer_1" data-name="Layer 1"><rect id="_Path_2" data-name="&lt;Path&gt;" width="2560" height="1600" fill="#58595b"/><path d="M1085.2,1388.7l-30.2,186.7-12.8-2.1-4.1,25.5,7.2,1.2H1132l4.3-279A90.7,90.7,0,0,0,1085.2,1388.7Z" transform="translate(1 0)" fill="#525354"/><path d="M1218.9,1323.9l3.5,276.1h12.4l29.5-182.3A90.8,90.8,0,0,0,1218.9,1323.9Z" transform="translate(1 0)" fill="#525354"/><path id="_Path_3" data-name="&lt;Path&gt;" d="M1052.9,1564.8V1307.4a123.6,123.6,0,0,0-123.6-123.6h0a123.6,123.6,0,0,0-123.6,123.6v257.4H788.1V1600h282.4v-35.2Z" transform="translate(1 0)" fill="#525354"/><path id="_Path_4" data-name="&lt;Path&gt;" d="M1467.8,1573.6V1380.4a92.7,92.7,0,0,0-92.7-92.7h0a92.7,92.7,0,0,0-92.7,92.7v193.2H1269V1600h212v-26.4Z" transform="translate(1 0)" fill="#525354"/><path id="_Path_5" data-name="&lt;Path&gt;" d="M2482.1,1600l40.2-248.1a123.6,123.6,0,0,0-102.2-141.7h0a123.6,123.6,0,0,0-141.7,102.2l-41.1,254.1-17.4-2.8-5.6,34.7,9.8,1.6Z" transform="translate(1 0)" fill="#525354"/><path id="_Path_6" data-name="&lt;Path&gt;" d="M757.4,1600l29.5-182.3a90.8,90.8,0,0,0-75.1-104.1h0a90.8,90.8,0,0,0-104.1,75.1l-30.2,186.7-12.8-2.1-4.1,25.5,7.2,1.2Z" transform="translate(1 0)" fill="#525354"/><g mask="url(#mask-8)"><rect id="_Path_7" data-name="&lt;Path&gt;" x="2" width="2560" height="1600" fill="url(#Fade_to_Black_1)" style="mix-blend-mode:darken"/></g><g mask="url(#mask-9)"><polygon points="1686.8 319.6 1743.8 220 1699 325 1749.2 347 1753.1 348.7 1754.7 353.4 1796.1 472.7 1829.8 443.7 1811.9 387 1839.8 435.1 1877.1 403 1871.3 327.7 1871.2 325.9 1872.6 325.1 1944.8 284.1 1876.9 328.7 1887.7 404.6 1888.1 407.1 1886.1 409.1 1802.5 491.1 1828 564.7 2114.2 686.5 2117.4 492.2 2117.7 474 2134.8 472.9 2351.8 459 2349.5 407.6 2257.2 393.6 2253.4 393 2254.2 389.4 2263.8 346.3 2230.7 331.9 2264.8 341.9 2275.6 293.1 2261.7 386.8 2348.9 393.8 2343.6 278.7 2374 457.5 2463.4 456 2547.4 354 2473.5 465.8 2471.9 468.9 2468.1 469.4 2196.5 515.6 2210.2 1600 2100.1 1600 2113 757 1804.2 596.8 1795.9 592.5 1793.9 584.9 1735.6 363.6 1496.4 236.2 1686.8 319.6" fill="url(#Fade_to_Black_1-2)" style="mix-blend-mode:darken"/></g><g mask="url(#mask-10)"><polygon points="793.3 547.7 840.1 465.8 803.3 552.1 844.6 570.2 847.7 571.6 849.1 575.5 883.1 673.5 910.8 649.7 896.1 603.1 919 642.6 949.7 616.2 944.9 554.4 944.8 552.9 946 552.2 1005.3 518.6 949.5 555.2 958.4 617.6 958.7 619.6 957 621.2 888.3 688.6 909.3 749.2 1144.5 849.3 1147.2 689.5 1147.4 674.6 1161.4 673.7 1339.8 662.2 1337.9 620 1262.1 608.5 1258.9 608 1259.6 605.1 1267.5 569.7 1240.3 557.8 1268.3 566 1277.2 525.9 1265.8 603 1337.4 608.6 1333 514.1 1358.1 661.1 1431.5 659.8 1500.5 576 1439.8 667.9 1438.6 670.4 1435.4 670.8 1212.2 708.8 1223.4 1600 1133 1600 1143.6 907.2 889.8 775.5 883 771.9 881.3 765.7 833.4 583.9 636.8 479.2 793.3 547.7" fill="url(#Fade_to_Black_1-3)" style="mix-blend-mode:darken"/></g><path d="M2197.6,840.8h0a202.3,202.3,0,0,0-29.2-6.7,204.7,204.7,0,0,0-30.7-2.3h0c-112.3,0-203.3,91-203.3,203.3v479.7H2341V1035.2C2341,943.7,2280.6,866.4,2197.6,840.8Z" transform="translate(1 0)" fill="#cccbb8"/><path d="M2259.6,1485.9V1035.2c0-91.4-60.4-168.8-143.4-194.3h0q-9.4-2.9-19.2-4.9c-92.8,18.9-162.6,100.9-162.6,199.2v479.7h325.2Z" transform="translate(1 0)" fill="#d7d8bf"/><path d="M2153.2,832.5l6.9.7Z" transform="translate(1 0)" fill="#ccccb8"/><path d="M2176.5,835.6q6.9,1.3,13.6,3.1Q2183.3,836.9,2176.5,835.6Z" transform="translate(1 0)" fill="#ccccb8"/><path d="M2161.6,833.3l6.7.9Z" transform="translate(1 0)" fill="#ccccb8"/><path d="M2168.4,834.2l6.9,1.2Z" transform="translate(1 0)" fill="#ccccb8"/><path d="M2137.7,831.9h0Z" transform="translate(1 0)" fill="#ccccb8"/><path d="M2191,838.9l6.6,1.9Z" transform="translate(1 0)" fill="#ccccb8"/><path d="M2146.4,832.1l6.7.4Z" transform="translate(1 0)" fill="#ccccb8"/><path d="M2098.9,835.6l1.2-.2Z" transform="translate(1 0)" fill="#ccccb8"/><polygon points="2078.8 840.8 2078.8 840.8 2078.8 840.8 2078.8 840.8" fill="#ccccb8"/><path d="M2084.4,838.9l.9-.3Z" transform="translate(1 0)" fill="#ccccb8"/><path d="M2107,834.2h0Z" transform="translate(1 0)" fill="#ccccb8"/><path d="M2129,832.1h0Z" transform="translate(1 0)" fill="#ccccb8"/><path d="M2122.2,832.5h0Z" transform="translate(1 0)" fill="#ccccb8"/><path d="M2113.8,833.3l1.5-.2Z" transform="translate(1 0)" fill="#ccccb8"/><rect id="_Path_8" data-name="&lt;Path&gt;" x="1873.7" y="1557.4" width="535.8" height="42.56" fill="#d7d8bf"/><rect id="_Path_9" data-name="&lt;Path&gt;" x="1908.8" y="1514.9" width="465.6" height="42.56" fill="#d7d8bf"/><rect id="_Path_10" data-name="&lt;Path&gt;" x="1908.8" y="1548.3" width="465.6" height="9.1" fill="#ceceb7"/><rect id="_Path_11" data-name="&lt;Path&gt;" x="1873.7" y="1590.9" width="535.8" height="9.1" fill="#ceceb7"/><rect id="_Path_12" data-name="&lt;Path&gt;" x="1935.4" y="1485.9" width="325.2" height="29.01" fill="#ceceb7"/><polygon points="2260.6 1485.9 2260.6 1514.9 2342 1514.9 2342 1514.9 2342 1485.9 2260.6 1485.9" fill="#c6c5b3"/><rect id="_Path_13" data-name="&lt;Path&gt;" x="2083.4" y="1350.6" width="114.1" height="58.15" rx="7.1" ry="7.1" fill="#e1e1c8"/><path id="_Path_14" data-name="&lt;Path&gt;" d="M1981.4,1090.4h-47v58.2h47a7.1,7.1,0,0,0,7.1-7.1v-43.9A7.1,7.1,0,0,0,1981.4,1090.4Z" transform="translate(1 0)" fill="#c8c7b4"/><rect id="_Path_15" data-name="&lt;Path&gt;" x="2018.6" y="1284.9" width="114.1" height="58.15" rx="7.1" ry="7.1" fill="#c8c7b4"/><path id="_Path_16" data-name="&lt;Path&gt;" d="M2294,1148.5h47v-58.2h-47a7.1,7.1,0,0,0-7.1,7.1v43.9A7.1,7.1,0,0,0,2294,1148.5Z" transform="translate(1 0)" fill="#c8c7b4"/><rect id="_Path_17" data-name="&lt;Path&gt;" x="2228" y="1156" width="114.1" height="58.15" rx="7.1" ry="7.1" fill="#e1e1c8"/><path id="_Path_18" data-name="&lt;Path&gt;" d="M937.4,509.6h-33A43.6,43.6,0,0,1,860.8,466h0a43.6,43.6,0,0,1,43.6-43.6h55.7a43.6,43.6,0,1,0,0-87.1H779.3a43.6,43.6,0,0,1-43.6-43.6h0a43.6,43.6,0,0,1,43.6-43.6h301a43.6,43.6,0,1,0,0-87.1H295.8a43.6,43.6,0,0,0,0,87.1H599.1a43.6,43.6,0,1,1,0,87.1H440.5a43.6,43.6,0,0,0,0,87.1H652.8a43.6,43.6,0,0,1,0,87.1h-63a43.6,43.6,0,0,0,0,87.1H937.4a43.6,43.6,0,0,0,0-87.1Z" transform="translate(1 0)" fill="#979c9c" opacity="0.05"/><path id="_Path_19" data-name="&lt;Path&gt;" d="M1620.7,335.1h33a43.6,43.6,0,0,1,43.6,43.6h0a43.6,43.6,0,0,1-43.6,43.6H1598a43.6,43.6,0,0,0,0,87.1h180.8a43.6,43.6,0,0,1,43.6,43.6h0a43.6,43.6,0,0,1-43.6,43.6h-301a43.6,43.6,0,1,0,0,87.1h784.5a43.6,43.6,0,0,0,0-87.1H1959a43.6,43.6,0,1,1,0-87.1h158.6a43.6,43.6,0,0,0,0-87.1H1905.3a43.6,43.6,0,0,1,0-87.1h63a43.6,43.6,0,1,0,0-87.1H1620.7a43.6,43.6,0,0,0,0,87.1Z" transform="translate(1 0)" fill="#979c9c" opacity="0.05"/><path d="M1059.8,1191.9h128.8V1140H1059.8a23.6,23.6,0,0,0-23.6,23.6v4.7A23.6,23.6,0,0,0,1059.8,1191.9Z" transform="translate(1 0)" fill="#666560"/><path d="M1059.8,1243.7h128.8v-51.9H1059.8a23.6,23.6,0,0,0-23.6,23.6v4.7A23.6,23.6,0,0,0,1059.8,1243.7Z" transform="translate(1 0)" fill="#666560"/><path d="M1188.5,1243.7V1140s-12,13.3-12,51.9S1188.5,1243.7,1188.5,1243.7Z" transform="translate(1 0)" fill="#565554"/><polygon points="1242.7 1600 1018.3 195.8 963.3 204.6 1186.3 1600 1242.7 1600" fill="#d97e49"/><polygon points="1242.7 1600 1018.3 195.8 998 199.1 1221.9 1600 1242.7 1600" fill="#c66839"/><path d="M1059.2,1191.9h61.7a25.9,25.9,0,0,0,25.9-25.9h0a25.9,25.9,0,0,0-25.9-25.9h-61.7a23.6,23.6,0,0,0-23.6,23.6v4.7A23.6,23.6,0,0,0,1059.2,1191.9Z" transform="translate(1 0)" fill="#6d6c66"/><path d="M1120.9,1140h-47a28.6,28.6,0,0,0,22.9,22.8l49.3,9.1a26,26,0,0,0,.7-5.9h0A25.9,25.9,0,0,0,1120.9,1140Z" transform="translate(1 0)" fill="#63625d"/><path d="M1059.2,1243.7h61.7a25.9,25.9,0,0,0,25.9-25.9h0a25.9,25.9,0,0,0-25.9-25.9h-61.7a23.6,23.6,0,0,0-23.6,23.6v4.7A23.6,23.6,0,0,0,1059.2,1243.7Z" transform="translate(1 0)" fill="#6d6c66"/><path d="M1097.8,1157.9l60.7,11.2a25.9,25.9,0,0,0,30.2-20.8l2.2-11.9a13.9,13.9,0,0,0-11.1-16.1l-72.6-13.3a23.6,23.6,0,0,0-27.5,18.9l-.8,4.6A23.6,23.6,0,0,0,1097.8,1157.9Z" transform="translate(1 0)" fill="#6d6c66"/><path d="M1042.1,1199.2H1139a25.8,25.8,0,0,0-18.1-7.3h-61.7A23.5,23.5,0,0,0,1042.1,1199.2Z" transform="translate(1 0)" fill="#63625d"/><path d="M2108,1600,1773.6,959h92.9V728c0-148.6-120.4-269-269-269h-8c-113.2,0-205,91.8-205,205V906.1c-2.4,132.8-78.6,215.4-195.9,215.4v140h168.9a27.1,27.1,0,0,1,27.1,27.1V1600Z" transform="translate(1 0)" fill="#2c2a2d"/><g mask="url(#mask-11)"><path d="M2108,1600,1773.6,959h92.9V728c0-148.6-120.4-269-269-269h-8c-113.2,0-205,91.8-205,205V906.1c-2.4,132.8-78.6,215.4-195.9,215.4v140h168.9a27.1,27.1,0,0,1,27.1,27.1V1600Z" transform="translate(1 0)" fill="url(#Fade_to_Black_1-4)" style="mix-blend-mode:darken"/></g><path d="M1217.6,1252.1h128.8v-51.9H1217.6a23.6,23.6,0,0,0-23.6,23.6v4.7A23.6,23.6,0,0,0,1217.6,1252.1Z" transform="translate(1 0)" fill="#7c7b71"/><path d="M1217.6,1304h128.8v-51.9H1217.6a23.6,23.6,0,0,0-23.6,23.6v4.7A23.6,23.6,0,0,0,1217.6,1304Z" transform="translate(1 0)" fill="#7c7b71"/><path d="M1346.3,1200.3h0a18,18,0,0,0-13.5-17.4l-43.2-11.3a18,18,0,0,0-10.7.5l-30.3,10.9a18,18,0,0,0-9.4,7.9l-5.5,9.4Z" transform="translate(1 0)" fill="#7c7b71"/><path d="M1238,1193l-4.3,7.3h112.6a18,18,0,0,0-1.6-7.3Z" transform="translate(1 0)" fill="#6d6c66"/><path d="M1200.5,1259.5h46.6v-7.3h-29.5A23.5,23.5,0,0,0,1200.5,1259.5Z" transform="translate(1 0)" fill="#6d6c66"/><path d="M1346.3,1304V1200.3s-12,13.3-12,51.9S1346.3,1304,1346.3,1304Z" transform="translate(1 0)" fill="#6d6c66"/><path d="M1155.8,1252.1h128.8v-51.9H1155.8a23.6,23.6,0,0,0-23.6,23.6v4.7A23.6,23.6,0,0,0,1155.8,1252.1Z" transform="translate(1 0)" fill="#7c7b71"/><path d="M1660.1,528.7c130,0,235.8,76,235.8,169.3a127,127,0,0,1-14.6,58.7l-1.1,2.2.9,2.3c6,15.7,7.3,31.2,4,46.1s-11.9,29.4-24.9,41.4-29.4,21-49.4,27.5l-3.7,1.2v3.9a8.6,8.6,0,0,1-8.6,8.5H1521.8a8.6,8.6,0,0,1-8.6-8.6v-4.5l-3.8-1.2c-20-6.5-36.6-15.7-49.4-27.5s-21.4-25.8-24.9-41.4-2-30.1,3.8-45.7l.9-2.3-1.1-2.2a127,127,0,0,1-14.5-58.4c0-93.4,105.8-169.3,235.8-169.3m0-5.5c-133.3,0-241.3,78.3-241.3,174.8a132.6,132.6,0,0,0,15.1,60.9c-6.1,16.1-7.7,32.7-4.1,48.9,7.7,34,37.1,59.6,77.9,72.8v.5a14.1,14.1,0,0,0,14.1,14.1h276.6a14.1,14.1,0,0,0,14.1-13.9c40.8-13.3,70.2-38.8,77.9-72.8,3.7-16.3,2-33-4.2-49.3a132.7,132.7,0,0,0,15.2-61.3c0-96.5-108-174.8-241.3-174.8Z" transform="translate(1 0)" fill="#262626"/><path d="M1885,807.3c3.4-14.9,2-30.4-4-46.1l-.9-2.3,1.1-2.2a127,127,0,0,0,14.6-58.7c0-93.4-105.8-169.3-235.8-169.3s-235.8,76-235.8,169.3a127,127,0,0,0,14.5,58.4l1.1,2.2-.9,2.3c-5.9,15.6-7.2,31-3.8,45.7S1447,836,1460,848s29.4,21,49.4,27.5l3.8,1.2v4.5a8.6,8.6,0,0,0,8.6,8.6h276.6a8.6,8.6,0,0,0,8.6-8.5v-3.9l3.7-1.2c20-6.5,36.6-15.7,49.4-27.5S1881.5,822.8,1885,807.3Z" transform="translate(1 0)" fill="#e5e5e5"/><path d="M1739,881.3h0a5.5,5.5,0,0,1,3.8-5.1h0c20-6.5,36.6-15.7,49.4-27.5s21.4-25.8,24.9-41.4,2-30.4-4-46.1l-.9-2.3,1.1-2.2a127,127,0,0,0,14.6-58.7c0-85.1-87.8-155.7-201.8-167.6-114,11.9-201.8,82.5-201.8,167.6a127,127,0,0,0,14.5,58.4l1.1,2.2-.9,2.3c-5.9,15.6-7.2,31-3.8,45.7S1447,836,1460,848s29.4,21,49.4,27.5l3.8,1.2v4.5a8.6,8.6,0,0,0,8.6,8.6h208.6A8.7,8.7,0,0,0,1739,881.3Z" transform="translate(1 0)" fill="#f2f2f2"/><path d="M1718.9,845.6h0a74.4,74.4,0,0,1-74.4-74.4V716.9a20.1,20.1,0,0,1,20.1-20.1h54.3a74.4,74.4,0,0,1,74.4,74.4h0A74.4,74.4,0,0,1,1718.9,845.6Z" transform="translate(1 0)" fill="#2d2d2d"/><path d="M1566.7,845.6h0a74.4,74.4,0,0,0,74.4-74.4V716.9a20.1,20.1,0,0,0-20.1-20.1h-54.3a74.4,74.4,0,0,0-74.4,74.4h0A74.4,74.4,0,0,0,1566.7,845.6Z" transform="translate(1 0)" fill="#2d2d2d"/><path d="M1661.1,828.8c-6.1-6.1-13-9.8-17.8-9.9h-.5c-4.8.1-11.7,3.8-17.8,9.9-8.5,8.5-12.2,18.4-8.5,22.2s13.7,0,22.2-8.5c1.6-1.6,3.1,7.6,4.3,6,1.3,1.7,2.7-7.6,4.3-6,8.5,8.5,18.4,12.2,22.2,8.5S1669.5,837.3,1661.1,828.8Z" transform="translate(1 0)" fill="#262626"/><path d="M1845.6,758.8a127.2,127.2,0,0,0-16.9-28.9c9.6,8.4,17.4,17.8,22.4,28.9Z" transform="translate(1 0)" fill="#262626"/><path d="M1439.8,758.8a127.2,127.2,0,0,1,16.9-28.9c-9.6,8.4-17.4,17.8-22.4,28.9Z" transform="translate(1 0)" fill="#262626"/><path d="M1793.2,774.4a74.4,74.4,0,0,0-143.7,23.9,74.4,74.4,0,0,0,69.3,47.4h0A74.4,74.4,0,0,0,1793.2,774.4Z" transform="translate(1 0)" fill="#212121"/><path d="M1615.5,843.7c-.8,3.1-.5,5.7,1,7.3,3.8,3.8,13.7,0,22.2-8.5,1.6-1.6,3.1,7.6,4.3,6,1.3,1.7,2.7-7.6,4.3-6,8.5,8.5,18.4,12.2,22.2,8.5,2.1-2.1,1.9-6.1-.2-10.7a44.2,44.2,0,0,0-24.7-7.6A44.8,44.8,0,0,0,1615.5,843.7Z" transform="translate(1 0)" fill="#212121"/><path d="M1492.1,774.4a74.4,74.4,0,0,1,143.7,23.9,74.4,74.4,0,0,1-69.3,47.4h0A74.4,74.4,0,0,1,1492.1,774.4Z" transform="translate(1 0)" fill="#212121"/><path d="M2265.8,1600,1910.5,976.8a27.5,27.5,0,0,1,4-32.6l68.9-72.3a25.8,25.8,0,0,0,4.8-7L2046,739.1a25.8,25.8,0,0,0,2.4-10.8v-130a25.8,25.8,0,0,1,3.9-13.6l75-120.8a25.8,25.8,0,0,0,3.7-10.8l18.3-168a25.8,25.8,0,0,0-5.1-18.4L2080.3,183v83.1a25.8,25.8,0,0,1-5.4,15.8l-78.8,101.1a25.8,25.8,0,0,1-20.3,9.9H1850a25.8,25.8,0,0,0-16.9,6.3l-61.5,53.4a25.8,25.8,0,0,1-16.9,6.3H1559.3c133.6,50.4,192.3,184,186.8,388.9A114,114,0,0,1,1632.2,959h-89.8c0,136.7-76.7,222-196,222v140h168.9a27.1,27.1,0,0,1,27.1,27.1V1600Z" transform="translate(1 0)" fill="#39393a"/><g mask="url(#mask-12)"><path d="M2265.8,1600,1910.5,976.8a27.5,27.5,0,0,1,4-32.6l68.9-72.3a25.8,25.8,0,0,0,4.8-7L2046,739.1a25.8,25.8,0,0,0,2.4-10.8v-130a25.8,25.8,0,0,1,3.9-13.6l75-120.8a25.8,25.8,0,0,0,3.7-10.8l18.3-168a25.8,25.8,0,0,0-5.1-18.4L2080.3,183v83.1a25.8,25.8,0,0,1-5.4,15.8l-78.8,101.1a25.8,25.8,0,0,1-20.3,9.9H1850a25.8,25.8,0,0,0-16.9,6.3l-61.5,53.4a25.8,25.8,0,0,1-16.9,6.3H1559.3c133.6,50.4,192.3,184,186.8,388.9A114,114,0,0,1,1632.2,959h-89.8c0,136.7-76.7,222-196,222v140h168.9a27.1,27.1,0,0,1,27.1,27.1V1600Z" transform="translate(1 0)" fill="url(#Fade_to_Black_1-5)" style="mix-blend-mode:darken"/></g><path d="M1027.6,194.2,1080.5,525c242.8-143.9,461.3-183.9,685.8-109.6C1560,282.6,1310.9,213.1,1027.6,194.2Z" transform="translate(1 0)" fill="#f1f2f2"/><path d="M1656.6,388.1c-181.5-90.4-390.7-139.9-622.8-155.4L1080.5,525C1283.6,404.6,1469.7,357,1656.6,388.1Z" transform="translate(1 0)" fill="#e0e0e0"/><rect x="963.7" y="238.3" width="76.7" height="76.67" rx="7.4" ry="7.4" transform="translate(-30.1 161.6) rotate(-9.1)" fill="#ddd"/><path d="M965.4,243.6a7.4,7.4,0,0,0-6.1,8.5l9.3,57.9,57.9-9.3a7.4,7.4,0,0,0,6.1-8.5l-9.3-57.9Z" transform="translate(1 0)" fill="#f1f2f2"/><rect x="992.6" y="419.3" width="76.7" height="76.67" rx="7.4" ry="7.4" transform="translate(-58.3 168.4) rotate(-9.1)" fill="#ddd"/><path d="M994.3,424.7a7.4,7.4,0,0,0-6.1,8.5l9.3,57.9,57.9-9.3a7.4,7.4,0,0,0,6.1-8.5l-9.3-57.9Z" transform="translate(1 0)" fill="#f1f2f2"/><path d="M1037.9,324.7q-29.9-3.6-54.9,8.8l-2.3-14.7,54.9-8.8Z" transform="translate(1 0)" fill="#414042" opacity="0.2" style="mix-blend-mode:darken"/><path d="M1066.8,505.8q-29.9-3.6-54.9,8.8l-2.3-14.7,54.9-8.8Z" transform="translate(1 0)" fill="#414042" opacity="0.2" style="mix-blend-mode:darken"/><g mask="url(#mask-13)"><polygon points="1104.9 1090.4 1186.3 1600 1242.7 1600 1161.2 1090.4 1104.9 1090.4" fill="url(#Fade_to_Black_1-6)" style="mix-blend-mode:darken"/></g><g mask="url(#mask-14)"><path d="M1698.9,861a120.1,120.1,0,0,1-54.1,97.3,114.1,114.1,0,0,0,101.3-110.4c5.4-202.8-52-335.7-182.6-387.3a204,204,0,0,0-28.2,5.6C1652.6,528.1,1704.2,663,1698.9,861Z" transform="translate(1 0)" fill="url(#Fade_to_Black_1-7)" style="mix-blend-mode:darken"/></g><polygon points="253.2 556.9 172.3 556.9 253.2 476 253.2 556.9" fill="#babec1" opacity="0.45"/><polygon points="253.2 476 253.2 556.9 172.3 556.9 172.3 1124 788.9 1124 788.9 476 253.2 476" fill="#babec1" opacity="0.2"/><text transform="translate(235.6 833.4)" font-size="52.67" fill="#f37434" font-family="OpenSans-Semibold, Open Sans" font-weight="700" letter-spacing="0.02em">PAGE NOT FOUND!</text><text transform="translate(232 754.8)" font-size="282.36" fill="#f37434" font-family="OpenSans-Semibold, Open Sans" font-weight="700" letter-spacing="0.03em">404</text></g></g></svg>